<svg width="105" height="25" viewBox="0 0 105 25" fill="none" xmlns="http://www.w3.org/2000/svg">
<path d="M12 2.5L2 7.5L12 12.5L22 7.5L12 2.5Z" stroke="#0095FF" stroke-width="2" stroke-linecap="round" stroke-linejoin="round"/>
<path d="M2 17.5L12 22.5L22 17.5" stroke="#0095FF" stroke-width="2" stroke-linecap="round" stroke-linejoin="round"/>
<path d="M2 12.5L12 17.5L22 12.5" stroke="#0095FF" stroke-width="2" stroke-linecap="round" stroke-linejoin="round"/>
<path d="M33.6396 16.4863C33.2028 16.4863 32.8984 16.4827 32.7266 16.4756C32.5977 16.4756 32.4902 16.4326 32.4043 16.3467C32.3112 16.2607 32.2646 16.1605 32.2646 16.0459V13.2207C32.2646 13.099 32.3112 12.9951 32.4043 12.9092C32.5046 12.8232 32.6191 12.7803 32.748 12.7803H33.4785C34.4238 12.7803 35.1758 12.9235 35.7344 13.21C36.3503 13.5251 36.6582 13.987 36.6582 14.5957C36.6582 15.2402 36.3574 15.7272 35.7559 16.0566C35.2188 16.3431 34.5133 16.4863 33.6396 16.4863ZM32.2646 7.63477C32.2646 7.36979 32.4043 7.22656 32.6836 7.20508C32.9629 7.18359 33.2923 7.17285 33.6719 7.17285C35.2331 7.17285 36.0137 7.67415 36.0137 8.67676C36.0137 9.16374 35.7881 9.55046 35.3369 9.83691C34.8714 10.1305 34.209 10.2773 33.3496 10.2773H32.7158C32.5941 10.2773 32.4867 10.2344 32.3936 10.1484C32.3076 10.0625 32.2646 9.95866 32.2646 9.83691V7.63477ZM37.8613 11.3408C37.7682 11.305 37.7181 11.237 37.7109 11.1367C37.7038 11.0365 37.7467 10.9648 37.8398 10.9219C39.179 10.2917 39.8486 9.36426 39.8486 8.13965C39.8486 6.87207 39.2292 5.94108 37.9902 5.34668C36.9733 4.80957 35.4229 4.54102 33.3389 4.54102C32.9378 4.54102 32.4079 4.53027 31.749 4.50879C30.9971 4.49447 30.5101 4.48372 30.2881 4.47656C29.8656 4.4694 29.5039 4.61263 29.2031 4.90625C28.9023 5.19271 28.752 5.54362 28.752 5.95898V17.5928C28.752 18.0225 28.9095 18.3805 29.2246 18.667C29.5469 18.9606 29.9229 19.0967 30.3525 19.0752C31.3337 19.0251 32.0785 19 32.5869 19C35.5088 19 37.5641 18.5703 38.7529 17.7109C39.8415 16.916 40.3857 15.9062 40.3857 14.6816C40.3857 13.0918 39.5443 11.9782 37.8613 11.3408ZM44.7471 13.4355C44.7471 12.9056 44.8438 12.4258 45.0371 11.9961C45.2448 11.5449 45.5205 11.237 45.8643 11.0723C46.5804 10.7214 47.2965 10.6855 48.0127 10.9648C48.6357 11.2083 49.0296 11.5521 49.1943 11.9961V14.6816C49.1729 15.5697 48.7969 16.139 48.0664 16.3896C47.7012 16.5114 47.3359 16.5436 46.9707 16.4863C46.3548 16.4863 45.8285 16.2035 45.3916 15.6377C44.9619 15.0648 44.7471 14.3737 44.7471 13.5645V13.4355ZM41.5244 13.6504C41.5244 15.1471 42.0293 16.4255 43.0391 17.4854C44.0488 18.5452 45.2663 19.0752 46.6914 19.0752C47.0996 19.0752 47.6833 18.8281 48.4424 18.334C48.6286 18.2122 48.8327 18.1657 49.0547 18.1943C49.2695 18.223 49.4557 18.3197 49.6133 18.4844C49.9785 18.8783 50.2686 19.0752 50.4834 19.0752H51.9014C52.0876 19.0752 52.2487 19.0072 52.3848 18.8711C52.5208 18.7422 52.5889 18.5811 52.5889 18.3877V9.80469C52.5889 9.46094 52.4635 9.16374 52.2129 8.91309C51.9694 8.6696 51.6722 8.54785 51.3213 8.54785H50.4404C50.0967 8.54785 49.8031 8.6696 49.5596 8.91309C49.3161 9.15658 49.1943 9.4502 49.1943 9.79395V9.80469C48.7288 8.74479 47.8945 8.21484 46.6914 8.21484C45.2663 8.21484 44.0488 8.74479 43.0391 9.80469C42.0293 10.8646 41.5244 12.1465 41.5244 13.6504ZM59.6357 16.3037C58.9626 15.96 58.626 15.1865 58.626 13.9834V10.5889H59.6143C59.915 10.5889 60.1729 10.4814 60.3877 10.2666C60.6097 10.0518 60.7207 9.79036 60.7207 9.48242V9.46094C60.7207 9.16016 60.6097 8.90234 60.3877 8.6875C60.1729 8.46549 59.915 8.35449 59.6143 8.35449H58.626V7.44141C58.626 7.07617 58.5114 6.74316 58.2822 6.44238C58.0602 6.14876 57.7702 5.9554 57.4121 5.8623L57.3691 5.85156C56.8464 5.70833 56.3701 5.80143 55.9404 6.13086C55.5107 6.46029 55.2959 6.89714 55.2959 7.44141V8.35449H54.8447C54.5368 8.35449 54.2754 8.46549 54.0605 8.6875C53.8457 8.90234 53.7383 9.16016 53.7383 9.46094V9.48242C53.7383 9.79036 53.8457 10.0518 54.0605 10.2666C54.2754 10.4814 54.5368 10.5889 54.8447 10.5889H55.2959V13.7686C55.3031 15.2939 55.5394 16.5042 56.0049 17.3994C56.585 18.5166 57.4945 19.0752 58.7334 19.0752C59.2777 19.0752 59.6966 18.6813 59.9902 17.8936C60.112 17.557 60.1478 17.249 60.0977 16.9697C60.0475 16.6546 59.8936 16.4326 59.6357 16.3037ZM70.0986 17.7646C70.0986 17.3923 69.9554 17.0843 69.6689 16.8408C69.3825 16.5973 69.0566 16.5042 68.6914 16.5615C68.3333 16.6188 68.0039 16.6296 67.7031 16.5938C66.9512 16.5938 66.3102 16.3073 65.7803 15.7344C65.2432 15.1686 64.9746 14.4811 64.9746 13.6719V13.543C64.9746 13.013 65.0964 12.5332 65.3398 12.1035C65.5905 11.6523 65.9271 11.3444 66.3496 11.1797C67.0944 10.8861 67.8499 10.818 68.6162 10.9756C68.9958 11.0615 69.3395 10.9827 69.6475 10.7393C69.9482 10.4958 70.0986 10.1807 70.0986 9.79395V9.70801C70.0986 9.44303 70.0199 9.19954 69.8623 8.97754C69.6976 8.7627 69.4863 8.61947 69.2285 8.54785C68.6842 8.39746 68.1257 8.32227 67.5527 8.32227C65.9199 8.32227 64.527 8.85221 63.374 9.91211C62.2139 10.972 61.6338 12.2539 61.6338 13.7578C61.6338 15.2546 62.2139 16.5329 63.374 17.5928C64.527 18.6527 65.9199 19.1826 67.5527 19.1826C68.1257 19.1826 68.6842 19.1074 69.2285 18.957C69.4863 18.8926 69.6976 18.7493 69.8623 18.5273C70.0199 18.3125 70.0986 18.069 70.0986 17.7969V17.7646ZM82.4951 13.5322C82.488 11.8564 82.069 10.4922 81.2383 9.43945C80.2786 8.23633 78.9788 7.80306 77.3389 8.13965C77.0166 8.2041 76.1787 8.63379 74.8252 9.42871L74.793 5.26074C74.793 4.80241 74.6318 4.41211 74.3096 4.08984C73.9801 3.76758 73.5898 3.60645 73.1387 3.60645H73.1064C72.6481 3.60645 72.2542 3.76758 71.9248 4.08984C71.6025 4.41927 71.4414 4.81315 71.4414 5.27148V17.3457C71.4414 17.804 71.6025 18.1943 71.9248 18.5166C72.2471 18.8389 72.6374 19 73.0957 19H73.1279C73.5863 19 73.9766 18.8389 74.2988 18.5166C74.6211 18.1943 74.7822 17.804 74.7822 17.3457V12.791C74.7965 12.7767 74.8001 12.7731 74.793 12.7803C74.8001 12.68 74.8109 12.5941 74.8252 12.5225C74.9183 12.0355 75.2979 11.5879 75.9639 11.1797C76.723 10.7142 77.457 10.6533 78.166 10.9971C78.8392 11.3265 79.1758 12.0964 79.1758 13.3066V17.3564C79.1758 17.8076 79.3369 18.1943 79.6592 18.5166C79.9814 18.8389 80.3682 19 80.8193 19H80.8516C81.3099 19 81.7002 18.8389 82.0225 18.5166C82.3447 18.1943 82.5059 17.8076 82.5059 17.3564L82.4951 13.5322ZM89.6602 10.75C90.2689 10.75 90.8239 10.9183 91.3252 11.2549C91.8122 11.5843 92.1667 12.0176 92.3887 12.5547H86.9209C87.1501 12.0176 87.5081 11.5843 87.9951 11.2549C88.4964 10.9183 89.0514 10.75 89.6602 10.75ZM94.4297 18.0762C94.5228 17.6823 94.4404 17.3278 94.1826 17.0127C93.932 16.6904 93.6061 16.5329 93.2051 16.54H89.6602C89.0371 16.54 88.4714 16.3646 87.9629 16.0137C87.4688 15.6771 87.1143 15.2295 86.8994 14.6709H94.5156C94.8021 14.6709 95.0492 14.5742 95.2568 14.3809C95.4645 14.1803 95.5684 13.9404 95.5684 13.6611V13.6504C95.5684 12.1465 95.0205 10.8646 93.9248 9.80469C92.8363 8.74479 91.5221 8.21484 89.9824 8.21484C89.875 8.21484 89.7676 8.21842 89.6602 8.22559C89.5527 8.21842 89.4453 8.21484 89.3379 8.21484C87.7982 8.21484 86.4805 8.74479 85.3848 9.80469C84.2962 10.8646 83.752 12.1465 83.752 13.6504C83.752 15.1471 84.2962 16.4255 85.3848 17.4854C86.4805 18.5452 87.7982 19.0752 89.3379 19.0752C89.4453 19.0752 89.5527 19.0716 89.6602 19.0645C89.7676 19.0716 89.875 19.0752 89.9824 19.0752C91.0853 19.0752 92.1631 19.0716 93.2158 19.0645C93.5023 19.0573 93.7601 18.9642 93.9893 18.7852C94.2113 18.6061 94.3545 18.377 94.4189 18.0977L94.4297 18.0762ZM103.389 8.0752C102.322 8.0752 101.487 8.28646 100.886 8.70898C100.657 8.86654 100.424 9.12793 100.188 9.49316C99.6934 8.76986 99.1383 8.4082 98.5225 8.4082H98.4688C98.0104 8.4082 97.6165 8.56934 97.2871 8.8916C96.9648 9.22103 96.8037 9.61491 96.8037 10.0732V17.4102C96.8037 17.8613 96.9648 18.248 97.2871 18.5703C97.6094 18.8997 97.9997 19.0645 98.458 19.0645H98.4902C98.9486 19.0645 99.3389 18.8997 99.6611 18.5703C99.9834 18.248 100.145 17.8613 100.145 17.4102V12.8447C100.145 12.8447 100.148 12.8447 100.155 12.8447C100.155 12.8376 100.155 12.834 100.155 12.834C100.162 12.7337 100.173 12.6478 100.188 12.5762C100.266 12.1751 100.574 11.7777 101.111 11.3838C101.72 10.9398 102.336 10.7679 102.959 10.8682C103.389 10.9469 103.657 10.639 103.765 9.94434L104.012 8.83789C104.055 8.64453 104.012 8.46908 103.883 8.31152C103.761 8.15397 103.596 8.0752 103.389 8.0752Z" fill="white"/>
</svg>
