<svg width="142" height="29" viewBox="0 0 142 29" fill="none" xmlns="http://www.w3.org/2000/svg">
<path d="M66.3787 7.2222C66.5644 7.2222 66.715 7.37275 66.715 7.55847V20.9086C66.715 21.0943 66.5644 21.2448 66.3787 21.2448H64.7511C64.5654 21.2448 64.4149 21.0943 64.4149 20.9086V13.2224C64.4149 12.8594 63.9191 12.7539 63.7714 13.0856L60.2263 21.0454C60.1723 21.1667 60.0519 21.2448 59.9191 21.2448H58.7614C58.6289 21.2448 58.5086 21.1669 58.4545 21.0459L54.8891 13.0783C54.741 12.7472 54.2459 12.8529 54.2459 13.2156V20.9086C54.2459 21.0943 54.0954 21.2448 53.9096 21.2448H52.2821C52.0964 21.2448 51.9458 21.0943 51.9458 20.9086V7.55847C51.9458 7.37275 52.0964 7.2222 52.2821 7.2222H54.2096C54.3422 7.2222 54.4624 7.30008 54.5165 7.42106L59.043 17.5314C59.1618 17.7968 59.5387 17.7965 59.6571 17.531L64.1646 7.42153C64.2186 7.30029 64.339 7.2222 64.4717 7.2222H66.3787Z" fill="#EBF4FE"/>
<path d="M68.9714 15.6358C68.9714 14.5194 69.2001 13.5307 69.6574 12.6698C70.1282 11.809 70.7604 11.1432 71.554 10.6724C72.3611 10.1881 73.2488 9.94602 74.2173 9.94602C75.0916 9.94602 75.8516 10.1209 76.4973 10.4706C76.823 10.6368 77.1159 10.8244 77.376 11.0333C77.6268 11.2348 78.071 11.0685 78.071 10.7468V10.4639C78.071 10.2782 78.2216 10.1276 78.4073 10.1276H80.055C80.2408 10.1276 80.3913 10.2782 80.3913 10.4639V20.9086C80.3913 21.0943 80.2408 21.2448 80.055 21.2448H78.4073C78.2216 21.2448 78.071 21.0943 78.071 20.9086V20.6062C78.071 20.2823 77.6196 20.1158 77.3689 20.3208C77.1059 20.5357 76.8087 20.7294 76.4771 20.9018C75.8045 21.2516 75.0378 21.4264 74.177 21.4264C73.2219 21.4264 72.3476 21.1843 71.554 20.7001C70.7604 20.2024 70.1282 19.5164 69.6574 18.6421C69.2001 17.7543 68.9714 16.7522 68.9714 15.6358ZM78.071 15.6761C78.071 14.9094 77.9096 14.2436 77.5868 13.6787C77.2774 13.1137 76.8672 12.6833 76.356 12.3874C75.8449 12.0915 75.2934 11.9435 74.7016 11.9435C74.1097 11.9435 73.5582 12.0915 73.0471 12.3874C72.5359 12.6698 72.119 13.0936 71.7961 13.6585C71.4868 14.21 71.3321 14.8691 71.3321 15.6358C71.3321 16.4025 71.4868 17.075 71.7961 17.6534C72.119 18.2318 72.5359 18.6757 73.0471 18.9851C73.5717 19.281 74.1232 19.429 74.7016 19.429C75.2934 19.429 75.8449 19.281 76.356 18.9851C76.8672 18.6892 77.2774 18.2587 77.5868 17.6938C77.9096 17.1154 78.071 16.4428 78.071 15.6761Z" fill="#EBF4FE"/>
<path d="M89.0215 9.94602C89.8958 9.94602 90.676 10.1276 91.362 10.4908C92.0614 10.854 92.6062 11.392 92.9963 12.1049C93.3863 12.8178 93.5814 13.6787 93.5814 14.6875V20.9086C93.5814 21.0943 93.4308 21.2448 93.2451 21.2448H91.6377C91.452 21.2448 91.3014 21.0943 91.3014 20.9086V15.0305C91.3014 14.0351 91.0526 13.2751 90.5549 12.7506C90.0572 12.2125 89.3779 11.9435 88.5171 11.9435C87.6562 11.9435 86.9702 12.2125 86.4591 12.7506C85.9614 13.2751 85.7126 14.0351 85.7126 15.0305V20.9086C85.7126 21.0943 85.562 21.2448 85.3763 21.2448H83.7487C83.563 21.2448 83.4124 21.0943 83.4124 20.9086V10.4639C83.4124 10.2782 83.563 10.1276 83.7487 10.1276H85.3769C85.5623 10.1276 85.7126 10.2779 85.7126 10.4632C85.7126 10.7781 86.1375 10.9447 86.3922 10.7596C86.6206 10.5936 86.8716 10.4502 87.1451 10.3294C87.7369 10.0738 88.3624 9.94602 89.0215 9.94602Z" fill="#EBF4FE"/>
<path d="M95.7486 15.6358C95.7486 14.5194 95.9773 13.5307 96.4346 12.6698C96.9054 11.809 97.5376 11.1432 98.3312 10.6724C99.1383 10.1881 100.026 9.94602 100.994 9.94602C101.869 9.94602 102.629 10.1209 103.274 10.4706C103.6 10.6368 103.893 10.8244 104.153 11.0333C104.404 11.2348 104.848 11.0685 104.848 10.7468V10.4639C104.848 10.2782 104.999 10.1276 105.184 10.1276H106.832C107.018 10.1276 107.168 10.2782 107.168 10.4639V20.9086C107.168 21.0943 107.018 21.2448 106.832 21.2448H105.184C104.999 21.2448 104.848 21.0943 104.848 20.9086V20.6062C104.848 20.2823 104.397 20.1158 104.146 20.3208C103.883 20.5357 103.586 20.7294 103.254 20.9018C102.582 21.2516 101.815 21.4264 100.954 21.4264C99.9991 21.4264 99.1248 21.1843 98.3312 20.7001C97.5376 20.2024 96.9054 19.5164 96.4346 18.6421C95.9773 17.7543 95.7486 16.7522 95.7486 15.6358ZM104.848 15.6761C104.848 14.9094 104.687 14.2436 104.364 13.6787C104.055 13.1137 103.644 12.6833 103.133 12.3874C102.622 12.0915 102.071 11.9435 101.479 11.9435C100.887 11.9435 100.335 12.0915 99.8243 12.3874C99.3131 12.6698 98.8961 13.0936 98.5733 13.6585C98.2639 14.21 98.1093 14.8691 98.1093 15.6358C98.1093 16.4025 98.2639 17.075 98.5733 17.6534C98.8961 18.2318 99.3131 18.6757 99.8243 18.9851C100.349 19.281 100.9 19.429 101.479 19.429C102.071 19.429 102.622 19.281 103.133 18.9851C103.644 18.6892 104.055 18.2587 104.364 17.6938C104.687 17.1154 104.848 16.4428 104.848 15.6761Z" fill="#EBF4FE"/>
<path d="M114.669 9.94602C115.53 9.94602 116.29 10.1209 116.949 10.4706C117.27 10.631 117.557 10.8113 117.81 11.0115C118.065 11.2127 118.522 11.0431 118.522 10.7185V10.4639C118.522 10.2782 118.673 10.1276 118.859 10.1276H120.507C120.692 10.1276 120.843 10.2782 120.843 10.4639V21.4264C120.843 22.4487 120.628 23.3567 120.197 24.1503C119.767 24.9573 119.141 25.5895 118.321 26.0468C117.514 26.5042 116.545 26.7328 115.415 26.7328C113.909 26.7328 112.658 26.3764 111.662 25.6635C110.771 25.0372 110.225 24.206 110.024 23.1699C109.986 22.9732 110.143 22.7984 110.343 22.7984H111.998C112.146 22.7984 112.275 22.8966 112.332 23.0333C112.529 23.5038 112.871 23.8896 113.357 24.1906C113.936 24.5538 114.622 24.7354 115.415 24.7354C116.343 24.7354 117.09 24.4529 117.655 23.888C118.233 23.323 118.522 22.5025 118.522 21.4264V20.586C118.522 20.2621 118.072 20.0964 117.823 20.3035C117.559 20.5227 117.261 20.7222 116.929 20.9018C116.269 21.2516 115.516 21.4264 114.669 21.4264C113.7 21.4264 112.813 21.1843 112.005 20.7001C111.212 20.2024 110.58 19.5164 110.109 18.6421C109.652 17.7543 109.423 16.7522 109.423 15.6358C109.423 14.5194 109.652 13.5307 110.109 12.6698C110.58 11.809 111.212 11.1432 112.005 10.6724C112.813 10.1881 113.7 9.94602 114.669 9.94602ZM118.522 15.6761C118.522 14.9094 118.361 14.2436 118.038 13.6787C117.729 13.1137 117.319 12.6833 116.807 12.3874C116.296 12.0915 115.745 11.9435 115.153 11.9435C114.561 11.9435 114.01 12.0915 113.499 12.3874C112.987 12.6698 112.57 13.0936 112.248 13.6585C111.938 14.21 111.784 14.8691 111.784 15.6358C111.784 16.4025 111.938 17.075 112.248 17.6534C112.57 18.2318 112.987 18.6757 113.499 18.9851C114.023 19.281 114.575 19.429 115.153 19.429C115.745 19.429 116.296 19.281 116.807 18.9851C117.319 18.6892 117.729 18.2587 118.038 17.6938C118.361 17.1154 118.522 16.4428 118.522 15.6761Z" fill="#EBF4FE"/>
<path d="M134.053 15.4138C134.053 15.7171 134.039 15.999 134.01 16.2596C133.992 16.4238 133.851 16.5437 133.686 16.5437H125.841C125.645 16.5437 125.489 16.7108 125.521 16.9038C125.642 17.6263 125.957 18.2192 126.467 18.6824C127.059 19.2205 127.785 19.4895 128.646 19.4895C129.807 19.4895 130.649 19.0332 131.171 18.1205C131.234 18.0094 131.35 17.9359 131.478 17.9359H133.286C133.515 17.9359 133.677 18.16 133.586 18.3704C133.23 19.1989 132.673 19.8947 131.914 20.458C131.04 21.1036 129.95 21.4264 128.646 21.4264C127.583 21.4264 126.628 21.191 125.781 20.7203C124.947 20.236 124.288 19.5635 123.803 18.7026C123.333 17.8283 123.097 16.8195 123.097 15.6761C123.097 14.5328 123.326 13.5307 123.783 12.6698C124.254 11.7955 124.906 11.123 125.74 10.6522C126.588 10.1814 127.556 9.94602 128.646 9.94602C129.695 9.94602 130.63 10.1747 131.45 10.632C132.271 11.0894 132.91 11.735 133.367 12.569C133.824 13.3895 134.053 14.3378 134.053 15.4138ZM131.31 14.6875C131.498 14.6875 131.652 14.5331 131.63 14.3466C131.55 13.656 131.254 13.0903 130.744 12.6497C130.152 12.1385 129.419 11.883 128.545 11.883C127.751 11.883 127.072 12.1385 126.507 12.6497C126.027 13.0726 125.712 13.6268 125.562 14.312C125.519 14.5096 125.677 14.6875 125.879 14.6875H131.31Z" fill="#EBF4FE"/>
<path d="M138.617 10.5193C138.617 10.861 139.138 11.0304 139.399 10.8101C139.569 10.6672 139.752 10.5406 139.948 10.4303C140.429 10.1555 140.983 9.99772 141.61 9.95678C141.795 9.94467 141.946 10.0966 141.946 10.2823V11.9906C141.946 12.1763 141.795 12.3268 141.61 12.3268H141.361C140.459 12.3268 139.773 12.5555 139.303 13.0128C138.845 13.4702 138.617 14.2638 138.617 15.3937V20.9086C138.617 21.0943 138.466 21.2448 138.28 21.2448H136.653C136.467 21.2448 136.317 21.0943 136.317 20.9086V10.4639C136.317 10.2782 136.467 10.1276 136.653 10.1276H138.28C138.466 10.1276 138.617 10.2782 138.617 10.4639V10.5193Z" fill="#EBF4FE"/>
<path d="M13.8418 22.5987V6M13.8418 6H6.00049M13.8418 6H21.3294" stroke="#1B1F27" stroke-width="11.7915" stroke-linecap="round" stroke-linejoin="round"/>
<path d="M12.622 22.5081C12.622 23.4746 13.4055 24.2581 14.372 24.2581C15.3385 24.2581 16.122 23.4746 16.122 22.5081H12.622ZM6 4.25C5.0335 4.25 4.25 5.0335 4.25 6C4.25 6.9665 5.0335 7.75 6 7.75V4.25ZM39.7084 20.6048C40.3918 21.2882 41.4998 21.2882 42.1832 20.6048C42.8667 19.9214 42.8667 18.8134 42.1832 18.1299L39.7084 20.6048ZM16.122 22.5081V6H12.622V22.5081H16.122ZM6 7.75H14.372V4.25H6V7.75ZM14.372 7.75H20.0568V4.25H14.372V7.75ZM31.6596 12.5561L39.7084 20.6048L42.1832 18.1299L34.1345 10.0812L31.6596 12.5561ZM20.0568 7.75C24.4087 7.75 28.5823 9.47879 31.6596 12.5561L34.1345 10.0812C30.4008 6.34754 25.3369 4.25 20.0568 4.25V7.75Z" fill="#FF005C"/>
<path d="M27.5785 22.5081L40.8644 9.2222" stroke="#FF005C" stroke-width="3.5" stroke-linecap="round"/>
<circle cx="45.9458" cy="14.2222" r="2" fill="white"/>
</svg>
